<svg id="Capa_1" enable-background="new 0 0 512 512" height="512" viewBox="0 0 512 512" width="512" xmlns="http://www.w3.org/2000/svg"><g><path d="m72.096 231.912h50.93c4.142 0 7.5-3.357 7.5-7.5s-3.358-7.5-7.5-7.5h-50.93c-4.142 0-7.5 3.357-7.5 7.5s3.358 7.5 7.5 7.5z"/><path d="m504.468 212.5c4.142 0 7.5-3.357 7.5-7.5v-167.5c0-20.678-16.822-37.5-37.5-37.5h-67.437c-4.142 0-7.5 3.357-7.5 7.5s3.358 7.5 7.5 7.5h67.437c12.407 0 22.5 10.094 22.5 22.5v19.686h-163.936v-19.686c0-12.406 10.093-22.5 22.5-22.5h16.5c4.142 0 7.5-3.357 7.5-7.5s-3.358-7.5-7.5-7.5h-16.5c-20.678 0-37.5 16.822-37.5 37.5v113.5h-12.5c-31.706 0-57.5 25.794-57.5 57.5v92c0 23.435-19.065 42.5-42.5 42.5h-9.564v-115.5c0-20.678-16.822-37.5-37.5-37.5h-120.936c-20.678 0-37.5 16.822-37.5 37.5v247c0 20.678 16.822 37.5 37.5 37.5h5.5c4.142 0 7.5-3.357 7.5-7.5s-3.358-7.5-7.5-7.5h-5.5c-12.407 0-22.5-10.094-22.5-22.5v-12.338h165.936v12.338c0 12.406-10.093 22.5-22.5 22.5h-80.436c-4.142 0-7.5 3.357-7.5 7.5s3.358 7.5 7.5 7.5h80.436c20.678 0 37.5-16.822 37.5-37.5v-116.5h9.564c31.706 0 57.5-25.794 57.5-57.5v-92c0-23.435 19.065-42.5 42.5-42.5h12.5v120.5c0 20.678 16.822 37.5 37.5 37.5h118.937c20.678 0 37.5-16.822 37.5-37.5v-46.5c0-4.143-3.358-7.5-7.5-7.5s-7.5 3.357-7.5 7.5v18.838h-163.937v-92.838h63.393l-13.696 13.696c-2.929 2.93-2.929 7.678 0 10.607 1.464 1.464 3.384 2.196 5.303 2.196s3.839-.732 5.303-2.196l26.5-26.5c2.899-2.796 2.898-7.812 0-10.607l-26.5-26.5c-2.929-2.928-7.678-2.928-10.606 0-2.929 2.93-2.929 7.678 0 10.607l13.696 13.697h-63.393v-78.814h163.937v132.814c-.001 4.143 3.357 7.5 7.499 7.5zm-466.936-7.5h120.936c12.407 0 22.5 10.094 22.5 22.5v19.314h-165.936v-19.314c0-12.406 10.093-22.5 22.5-22.5zm143.436 242.162h-165.936v-185.348h165.936v81.186h-39.356c-2.068-10.86-11.628-19.097-23.08-19.097h-2.5c-4.142 0-7.5 3.357-7.5 7.5s3.358 7.5 7.5 7.5h2.5c4.687 0 8.5 3.813 8.5 8.5v6.193c0 4.687-3.813 8.5-8.5 8.5h-42c-4.687 0-8.5-3.813-8.5-8.5v-6.193c0-4.687 3.813-8.5 8.5-8.5h4.819c4.142 0 7.5-3.357 7.5-7.5s-3.358-7.5-7.5-7.5h-4.819c-12.958 0-23.5 10.542-23.5 23.5v6.193c0 12.958 10.542 23.5 23.5 23.5h42c11.453 0 21.012-8.237 23.08-19.097h39.356zm316-173.324v12.662c0 12.406-10.093 22.5-22.5 22.5h-118.936c-12.407 0-22.5-10.094-22.5-22.5v-12.662z"/><path d="m389.383 42.088h50.367c4.142 0 7.5-3.357 7.5-7.5s-3.358-7.5-7.5-7.5h-50.367c-4.142 0-7.5 3.357-7.5 7.5s3.358 7.5 7.5 7.5z"/></g></svg>